<svg xmlns="http://www.w3.org/2000/svg" width="64" height="64" viewBox="0 0 64 64" fill="none">
  <path d="M6 10h22a2 2 0 0 1 2 2v14a2 2 0 0 1-2 2H14l-6 6v-6H6a2 2 0 0 1-2-2V12a2 2 0 0 1 2-2z" fill="none" stroke="#FAA31A" stroke-width="2" stroke-linecap="round" stroke-linejoin="round"/>
  <path d="M36 24h22a2 2 0 0 1 2 2v14a2 2 0 0 1-2 2h-2v6l-6-6H36a2 2 0 0 1-2-2V26a2 2 0 0 1 2-2z" fill="none" stroke="#FAA31A" stroke-width="2" stroke-linecap="round" stroke-linejoin="round"/>
  <path d="M18 48c4-2 8-2 14 0s10 2 14 0" fill="none" stroke="#FAA31A" stroke-width="2" stroke-linecap="round" stroke-linejoin="round"/>
  <path d="M22 52c3-1.5 6-1.5 10 0s7 1.5 10 0" fill="none" stroke="#FAA31A" stroke-width="1.5" stroke-linecap="round" stroke-linejoin="round" opacity="0.6"/></svg>
