<svg xmlns="http://www.w3.org/2000/svg" width="64" height="64" viewBox="0 0 64 64" fill="none">
  <rect x="12" y="4" width="30" height="42" rx="3" fill="none" stroke="#FAA31A" stroke-width="2" stroke-linecap="round" stroke-linejoin="round"/>
  <rect x="17" y="10" width="20" height="10" rx="1.5" fill="none" stroke="#FAA31A" stroke-width="1.5" stroke-linecap="round" stroke-linejoin="round"/>
  <rect x="17" y="25" width="5" height="4" rx="0.5" fill="#FAA31A" opacity="0.35"/>
  <rect x="24.5" y="25" width="5" height="4" rx="0.5" fill="#FAA31A" opacity="0.35"/>
  <rect x="32" y="25" width="5" height="4" rx="0.5" fill="#FAA31A" opacity="0.35"/>
  <rect x="17" y="32" width="5" height="4" rx="0.5" fill="#FAA31A" opacity="0.25"/>
  <rect x="24.5" y="32" width="5" height="4" rx="0.5" fill="#FAA31A" opacity="0.25"/>
  <rect x="32" y="32" width="5" height="4" rx="0.5" fill="#FAA31A" opacity="0.25"/>
  <rect x="17" y="39" width="12.5" height="4" rx="0.5" fill="#FAA31A" opacity="0.25"/>
  <rect x="32" y="39" width="5" height="4" rx="0.5" fill="#FAA31A" opacity="0.25"/>
  <circle cx="50" cy="48" r="12" fill="none" stroke="#FAA31A" stroke-width="2" stroke-linecap="round" stroke-linejoin="round"/>
  <path d="M50 42v12" fill="none" stroke="#FAA31A" stroke-width="2" stroke-linecap="round" stroke-linejoin="round"/>
  <polyline points="46,46 50,42 54,46" fill="none" stroke="#FAA31A" stroke-width="2" stroke-linecap="round" stroke-linejoin="round"/></svg>
